<svg width="500" height="500" viewBox="0 0 500 500" fill="none" xmlns="http://www.w3.org/2000/svg">
<g clip-path="url(#clip0_25_3)">
<g clip-path="url(#clip1_25_3)">
<g filter="url(#filter0_d_25_3)">
<path d="M162.156 267.839C163.812 270.709 167.482 271.692 170.352 270.035L237.896 231.039C242.525 228.366 241.612 221.431 236.449 220.047L129.908 191.5C124.745 190.116 120.486 195.666 123.159 200.295L162.156 267.839ZM-6.05687 227.159L115.841 156.781C117.22 155.985 118.857 155.77 120.394 156.182L262.347 194.218C263.884 194.63 265.194 195.635 265.99 197.013L372.178 380.937C376.927 389.162 378.214 398.937 375.756 408.11C373.298 417.284 367.296 425.106 359.071 429.855L172.995 537.286C155.783 547.223 133.925 541.235 124.077 524.178L-19.1644 276.077C-29.1017 258.865 -23.2689 237.097 -6.05687 227.159ZM118.217 429.625C117.359 432.826 119.259 436.116 122.459 436.973L202.365 458.384C205.558 459.239 208.841 457.351 209.708 454.162L215.957 431.165C216.828 427.959 214.929 424.656 211.72 423.796L166.342 411.637C163.141 410.78 161.242 407.49 162.1 404.289L174.258 358.911C175.118 355.702 173.207 352.406 169.995 351.557L146.955 345.471C143.76 344.627 140.483 346.526 139.627 349.719L118.217 429.625ZM288.161 341.305C289.019 338.104 287.12 334.814 283.919 333.957L204.013 312.546C200.82 311.69 197.537 313.578 196.67 316.768L190.421 339.765C189.55 342.97 191.449 346.274 194.658 347.133L240.036 359.292C243.237 360.15 245.136 363.44 244.279 366.641L232.12 412.018C231.26 415.227 233.171 418.524 236.383 419.372L259.423 425.459C262.619 426.303 265.895 424.403 266.751 421.211L288.161 341.305Z" fill="url(#paint0_linear_25_3)"/>
</g>
</g>
<g clip-path="url(#clip2_25_3)">
<g filter="url(#filter1_dd_25_3)">
<path d="M321.457 328.092C352.672 346.114 392.552 335.428 410.574 304.213L467.658 205.341C476.628 189.804 471.255 169.753 455.718 160.783L428.933 145.318C420.324 140.348 417.374 129.339 422.345 120.73L445.964 79.8201C454.934 64.2831 449.561 44.2317 434.024 35.2614L405.775 18.9518C390.238 9.98156 370.187 15.3543 361.217 30.8913L337.597 71.8009C332.627 80.4102 321.618 83.3599 313.009 78.3894L286.224 62.925C270.687 53.9547 250.636 59.3275 241.665 74.8644L160.962 214.646C155.992 223.255 158.942 234.264 167.551 239.234L321.457 328.092ZM337.766 299.843L295.393 275.378C287.592 270.874 284.919 260.9 289.423 253.099V253.099C293.927 245.298 291.254 235.323 283.453 230.82V230.82C275.653 226.316 265.678 228.989 261.174 236.789L257.097 243.852C254.845 247.752 249.857 249.088 245.957 246.836V246.836C242.057 244.585 240.72 239.597 242.972 235.697L263.359 200.386C267.863 192.585 265.19 182.61 257.389 178.106V178.106C249.589 173.602 239.614 176.275 235.11 184.076L214.723 219.387C212.471 223.288 207.484 224.624 203.583 222.372V222.372C199.683 220.12 198.347 215.133 200.599 211.232L228.295 163.261C233.266 154.651 244.274 151.702 252.884 156.672L391.201 236.53C399.81 241.5 402.76 252.509 397.789 261.118L382.325 287.903C373.355 303.44 353.303 308.813 337.766 299.843ZM425.284 180.877C433.085 185.381 435.757 195.355 431.254 203.156V203.156C426.75 210.957 416.775 213.63 408.974 209.126L267.729 127.578C259.928 123.074 257.256 113.099 261.759 105.299V105.299C266.263 97.4978 276.238 94.825 284.039 99.3288L425.284 180.877Z" fill="url(#paint1_radial_25_3)" fill-opacity="0.51" shape-rendering="crispEdges"/>
<path d="M321.457 328.092C352.672 346.114 392.552 335.428 410.574 304.213L467.658 205.341C476.628 189.804 471.255 169.753 455.718 160.783L428.933 145.318C420.324 140.348 417.374 129.339 422.345 120.73L445.964 79.8201C454.934 64.2831 449.561 44.2317 434.024 35.2614L405.775 18.9518C390.238 9.98156 370.187 15.3543 361.217 30.8913L337.597 71.8009C332.627 80.4102 321.618 83.3599 313.009 78.3894L286.224 62.925C270.687 53.9547 250.636 59.3275 241.665 74.8644L160.962 214.646C155.992 223.255 158.942 234.264 167.551 239.234L321.457 328.092ZM337.766 299.843L295.393 275.378C287.592 270.874 284.919 260.9 289.423 253.099V253.099C293.927 245.298 291.254 235.323 283.453 230.82V230.82C275.653 226.316 265.678 228.989 261.174 236.789L257.097 243.852C254.845 247.752 249.857 249.088 245.957 246.836V246.836C242.057 244.585 240.72 239.597 242.972 235.697L263.359 200.386C267.863 192.585 265.19 182.61 257.389 178.106V178.106C249.589 173.602 239.614 176.275 235.11 184.076L214.723 219.387C212.471 223.288 207.484 224.624 203.583 222.372V222.372C199.683 220.12 198.347 215.133 200.599 211.232L228.295 163.261C233.266 154.651 244.274 151.702 252.884 156.672L391.201 236.53C399.81 241.5 402.76 252.509 397.789 261.118L382.325 287.903C373.355 303.44 353.303 308.813 337.766 299.843ZM425.284 180.877C433.085 185.381 435.757 195.355 431.254 203.156V203.156C426.75 210.957 416.775 213.63 408.974 209.126L267.729 127.578C259.928 123.074 257.256 113.099 261.759 105.299V105.299C266.263 97.4978 276.238 94.825 284.039 99.3288L425.284 180.877Z" fill="url(#paint2_linear_25_3)" shape-rendering="crispEdges"/>
</g>
</g>
</g>
<defs>
<filter id="filter0_d_25_3" x="-48.008" y="131.977" width="448.984" height="434.118" filterUnits="userSpaceOnUse" color-interpolation-filters="sRGB">
<feFlood flood-opacity="0" result="BackgroundImageFix"/>
<feColorMatrix in="SourceAlpha" type="matrix" values="0 0 0 0 0 0 0 0 0 0 0 0 0 0 0 0 0 0 127 0" result="hardAlpha"/>
<feMorphology radius="4" operator="dilate" in="SourceAlpha" result="effect1_dropShadow_25_3"/>
<feOffset/>
<feGaussianBlur stdDeviation="10"/>
<feComposite in2="hardAlpha" operator="out"/>
<feColorMatrix type="matrix" values="0 0 0 0 0.635294 0 0 0 0 0.831373 0 0 0 0 0.913725 0 0 0 0.67 0"/>
<feBlend mode="normal" in2="BackgroundImageFix" result="effect1_dropShadow_25_3"/>
<feBlend mode="normal" in="SourceGraphic" in2="effect1_dropShadow_25_3" result="shape"/>
</filter>
<filter id="filter1_dd_25_3" x="148.548" y="4.60686" width="333.455" height="342.242" filterUnits="userSpaceOnUse" color-interpolation-filters="sRGB">
<feFlood flood-opacity="0" result="BackgroundImageFix"/>
<feColorMatrix in="SourceAlpha" type="matrix" values="0 0 0 0 0 0 0 0 0 0 0 0 0 0 0 0 0 0 127 0" result="hardAlpha"/>
<feOffset/>
<feGaussianBlur stdDeviation="5"/>
<feComposite in2="hardAlpha" operator="out"/>
<feColorMatrix type="matrix" values="0 0 0 0 0.385139 0 0 0 0 0.823815 0 0 0 0 0.983333 0 0 0 0.51 0"/>
<feBlend mode="normal" in2="BackgroundImageFix" result="effect1_dropShadow_25_3"/>
<feColorMatrix in="SourceAlpha" type="matrix" values="0 0 0 0 0 0 0 0 0 0 0 0 0 0 0 0 0 0 127 0" result="hardAlpha"/>
<feOffset dy="4"/>
<feGaussianBlur stdDeviation="2"/>
<feComposite in2="hardAlpha" operator="out"/>
<feColorMatrix type="matrix" values="0 0 0 0 0 0 0 0 0 0 0 0 0 0 0 0 0 0 0.25 0"/>
<feBlend mode="normal" in2="effect1_dropShadow_25_3" result="effect2_dropShadow_25_3"/>
<feBlend mode="normal" in="SourceGraphic" in2="effect2_dropShadow_25_3" result="shape"/>
</filter>
<linearGradient id="paint0_linear_25_3" x1="181.728" y1="190.217" x2="161.683" y2="492.361" gradientUnits="userSpaceOnUse">
<stop stop-color="#AAD5E8"/>
<stop offset="1" stop-color="#00BFFF"/>
</linearGradient>
<radialGradient id="paint1_radial_25_3" cx="0" cy="0" r="1" gradientUnits="userSpaceOnUse" gradientTransform="translate(342.429 161.29) rotate(-43.9698) scale(183.271 154.334)">
<stop offset="0.225" stop-color="#30BCC6"/>
<stop offset="1" stop-color="#5172B0"/>
</radialGradient>
<linearGradient id="paint2_linear_25_3" x1="424.774" y1="62.4935" x2="242.338" y2="276.238" gradientUnits="userSpaceOnUse">
<stop stop-color="#0051FF" stop-opacity="0"/>
<stop offset="1" stop-color="#1AA1F4"/>
</linearGradient>
<clipPath id="clip0_25_3">
<rect width="500" height="500" rx="40" fill="white"/>
</clipPath>
<clipPath id="clip1_25_3">
<rect width="429.724" height="429.724" fill="white" transform="translate(-117 249.862) rotate(-30)"/>
</clipPath>
<clipPath id="clip2_25_3">
<rect width="391.43" height="391.43" fill="white" transform="translate(409.988 435.704) rotate(-150)"/>
</clipPath>
</defs>
</svg>
